<svg xmlns="http://www.w3.org/2000/svg" viewBox="0 0 760 430" role="img" aria-labelledby="title desc">
  <title id="title">FIELD OPS 가상 네트워크 지도</title>
  <desc id="desc">사용자 브라우저에서 게이트웨이, 웹 애플리케이션, 데이터베이스와 내부 서비스로 이어지는 격리된 훈련 네트워크입니다.</desc>
  <defs>
    <linearGradient id="bg" x1="0" y1="0" x2="1" y2="1"><stop stop-color="#0d222b"/><stop offset="1" stop-color="#08131c"/></linearGradient>
    <linearGradient id="node" x1="0" y1="0" x2="1" y2="1"><stop stop-color="#173844"/><stop offset="1" stop-color="#10252f"/></linearGradient>
    <filter id="glow"><feGaussianBlur stdDeviation="4" result="b"/><feMerge><feMergeNode in="b"/><feMergeNode in="SourceGraphic"/></feMerge></filter>
    <pattern id="grid" width="32" height="32" patternUnits="userSpaceOnUse"><path d="M32 0H0V32" fill="none" stroke="#28505a" stroke-opacity=".22"/></pattern>
  </defs>
  <rect width="760" height="430" rx="28" fill="url(#bg)"/>
  <rect width="760" height="430" rx="28" fill="url(#grid)"/>
  <g fill="none" stroke="#4b8b91" stroke-opacity=".55" stroke-width="2">
    <path d="M153 215H260"/><path d="M375 215H475"/><path d="M575 215h60"/><path d="M525 167V94H636"/><path d="M525 263v73H636"/>
  </g>
  <g fill="#77f2c7" filter="url(#glow)"><circle cx="207" cy="215" r="4"/><circle cx="425" cy="215" r="4"/><circle cx="604" cy="215" r="4"/><circle cx="525" cy="126" r="4"/><circle cx="525" cy="301" r="4"/></g>
  <g font-family="ui-monospace, SFMono-Regular, Menlo, monospace">
    <g transform="translate(45 169)"><rect width="108" height="92" rx="16" fill="url(#node)" stroke="#3f6973"/><rect x="24" y="22" width="60" height="38" rx="5" fill="#08141c" stroke="#75f3c8"/><path d="M44 70h20M54 60v10" stroke="#75f3c8"/><text x="54" y="82" text-anchor="middle" fill="#a9c2c5" font-size="10">OPERATOR</text></g>
    <g transform="translate(260 161)"><rect width="115" height="108" rx="18" fill="url(#node)" stroke="#3f6973"/><path d="M57 21l27 12v21c0 18-11 29-27 35-16-6-27-17-27-35V33z" fill="#0a1a22" stroke="#75f3c8"/><path d="M46 53l8 8 16-19" fill="none" stroke="#75f3c8" stroke-width="3"/><text x="57" y="99" text-anchor="middle" fill="#a9c2c5" font-size="10">LAB GATE</text></g>
    <g transform="translate(475 161)"><rect width="100" height="108" rx="18" fill="url(#node)" stroke="#3f6973"/><rect x="21" y="20" width="58" height="54" rx="6" fill="#08141c" stroke="#75f3c8"/><path d="M31 34h37M31 45h20M31 56h29" stroke="#4f8890"/><text x="50" y="99" text-anchor="middle" fill="#a9c2c5" font-size="10">WEB TARGET</text></g>
    <g transform="translate(635 169)"><rect width="80" height="92" rx="16" fill="url(#node)" stroke="#3f6973"/><ellipse cx="40" cy="28" rx="23" ry="10" fill="#08141c" stroke="#efb35c"/><path d="M17 28v31c0 5 10 10 23 10s23-5 23-10V28M17 43c0 5 10 10 23 10s23-5 23-10" fill="none" stroke="#efb35c"/><text x="40" y="83" text-anchor="middle" fill="#a9c2c5" font-size="9">SQLITE</text></g>
    <g transform="translate(636 55)"><rect width="80" height="78" rx="16" fill="url(#node)" stroke="#3f6973"/><circle cx="25" cy="27" r="8" fill="#75f3c8"/><circle cx="55" cy="27" r="8" fill="#efb35c"/><path d="M25 35v15h30V35" fill="none" stroke="#65939a"/><text x="40" y="66" text-anchor="middle" fill="#a9c2c5" font-size="9">V-NET</text></g>
    <g transform="translate(636 297)"><rect width="80" height="78" rx="16" fill="url(#node)" stroke="#3f6973"/><path d="M20 25h40v30H20zM27 34l7 6-7 6M39 46h13" fill="none" stroke="#75f3c8"/><text x="40" y="68" text-anchor="middle" fill="#a9c2c5" font-size="9">TERMINAL</text></g>
  </g>
  <g font-family="ui-monospace, SFMono-Regular, Menlo, monospace" font-size="10" fill="#65838d"><text x="28" y="31">ISOLATED TRAINING RANGE / OUTBOUND: DENY</text><text x="732" y="407" text-anchor="end">RANGE-01 · ONLINE</text></g>
</svg>
